<svg xmlns="http://www.w3.org/2000/svg" viewBox="0 0 96 96" role="img" aria-label="Merlin Garage Door Repairs">
  <defs>
    <linearGradient id="base" x1="18" y1="10" x2="82" y2="90" gradientUnits="userSpaceOnUse">
      <stop stop-color="#17202D"/>
      <stop offset="1" stop-color="#070B10"/>
    </linearGradient>
    <linearGradient id="green" x1="22" y1="18" x2="74" y2="79" gradientUnits="userSpaceOnUse">
      <stop stop-color="#8FE45B"/>
      <stop offset="1" stop-color="#55B923"/>
    </linearGradient>
    <filter id="soft" x="-20%" y="-20%" width="140%" height="140%" color-interpolation-filters="sRGB">
      <feDropShadow dx="0" dy="3" stdDeviation="3" flood-color="#000000" flood-opacity="0.25"/>
    </filter>
  </defs>

  <rect x="6" y="6" width="84" height="84" rx="22" fill="url(#base)"/>
  <path d="M19 36.5 48 17l29 19.5" fill="none" stroke="url(#green)" stroke-width="8" stroke-linecap="round" stroke-linejoin="round" filter="url(#soft)"/>
  <path d="M25 39.5h46v35.5c0 4.4-3.6 8-8 8H33c-4.4 0-8-3.6-8-8V39.5Z" fill="#FFFFFF"/>
  <path d="M31 45h34v32H31V45Z" fill="#111827"/>
  <path d="M36 52h24M36 61h24M36 70h24" stroke="#FFFFFF" stroke-opacity="0.9" stroke-width="3.4" stroke-linecap="round"/>
  <path d="M31 45h34v32H31V45Z" fill="none" stroke="#66C42B" stroke-width="3"/>

  <circle cx="70" cy="26" r="10" fill="#E64833"/>
  <path d="M65.8 26.2h8.4M70 22v8.4" stroke="#FFFFFF" stroke-width="2.8" stroke-linecap="round"/>
</svg>
