<svg xmlns="http://www.w3.org/2000/svg" version="1.0" viewBox="9.8 82.4 166.4 19.7"><defs><clipPath id="a"><path d="M9.8 82.4h19.5v19.4H9.8zm0 0"/></clipPath><clipPath id="b"><path d="M0 0h147v28H0z"/></clipPath></defs><g clip-path="url(#a)"><path fill="#ff4800" d="M29.5 92.2a9.8 9.8 0 10-19.7 0 9.8 9.8 0 0019.7 0"/></g><path fill="#fff" d="M20.5 87.2l1 2.1c.2.3.5.5.8.5l2.4.4c.8.1 1 1 .5 1.6l-1.7 1.7a1 1 0 00-.3.8l.4 2.4a1 1 0 01-1.4 1l-2.1-1.1a1 1 0 00-.9 0l-2.1 1.1a1 1 0 01-1.4-1l.4-2.4c0-.3 0-.6-.3-.8l-1.7-1.7a1 1 0 01.5-1.6l2.4-.4c.3 0 .6-.2.7-.5l1.1-2.1a1 1 0 011.7 0"/><g clip-path="url(#b)" fill="#1f1f1f" transform="translate(31 78)"><path d="M4.3 21L1.4 9h3.8l1.5 9H7l1.8-9H13l1.9 9h.4l1.4-9h3.7L17.6 21h-5L11.2 12h-.4L9.2 21zm0 0M26.1 21.3a7 7 0 01-3.2-.7 5 5 0 01-2.1-2A7 7 0 0120 15c0-1.4.3-2.5.8-3.4.5-1 1.2-1.6 2.2-2a7 7 0 016.4 0 5 5 0 012 2c.6.9.9 2 .9 3.5a7 7 0 01-.8 3.5 5 5 0 01-2.2 2c-1 .5-2 .7-3.2.7zm.1-2.6c.4 0 .7 0 1-.2.3-.1.5-.3.7-.6.3-.2.4-.6.5-1 .2-.5.2-1 .2-1.6 0-.7 0-1.3-.2-1.7l-.5-1.2a2.3 2.3 0 00-1.9-.8c-.3 0-.6 0-1 .2-.2 0-.5.3-.7.5a3 3 0 00-.5 1 6 6 0 00-.2 1.7l.2 1.7.6 1.1a2.2 2.2 0 001.8.9zm0 0M32.8 21V9h3v4h.5a8 8 0 01.6-2.4c.3-.7.7-1.1 1.2-1.4.5-.3 1.2-.4 2-.4h1l-.2 4c-.2-.2-.5-.3-.8-.3h-.7c-.6 0-1 0-1.5.3-.4.2-.7.5-1 1a5 5 0 00-.4 1.8V21zm0 0M45.6 21.3c-1 0-1.8-.3-2.6-.7a5 5 0 01-1.7-2.2c-.4-1-.6-2-.6-3.4 0-1.2.2-2.3.5-3.2.4-1 1-1.6 1.6-2.2.7-.5 1.6-.7 2.6-.7a4 4 0 012 .4c.5.2.9.6 1.2 1.2.4.5.6 1.2.8 2h.5a55 55 0 00-.5-3.8V5H53v16h-3v-3.4h-.4c-.2.9-.5 1.6-.8 2.1-.4.6-.8 1-1.4 1.3a4 4 0 01-1.8.4zm1.3-3a2.2 2.2 0 002-1l.4-1 .1-1v-.5l-.1-.9-.4-.8c0-.3-.3-.5-.5-.7l-.7-.5a2.3 2.3 0 00-2.1.3c-.4.2-.7.6-.8 1.1a5 5 0 00-.3 1.8c0 .6 0 1.2.3 1.7.2.5.5.9.8 1.2.4.2.8.4 1.3.4zm0 0M63.2 21.3a7 7 0 01-3.2-.7 5 5 0 01-2.1-2 7 7 0 01-.8-3.6c0-1.4.3-2.5.8-3.4.5-1 1.2-1.6 2.2-2a7 7 0 016.4 0 5 5 0 012 2c.6.9.9 2 .9 3.5a7 7 0 01-.8 3.5 5 5 0 01-2.2 2c-1 .5-2 .7-3.2.7zm.1-2.6c.4 0 .7 0 1-.2.3-.1.5-.3.7-.6.3-.2.4-.6.5-1 .2-.5.2-1 .2-1.6 0-.7 0-1.3-.2-1.7l-.5-1.2a2.3 2.3 0 00-1.9-.8c-.3 0-.6 0-.9.2-.3 0-.5.3-.8.5a3 3 0 00-.5 1 6 6 0 00-.2 1.7l.2 1.7.6 1.1a2.2 2.2 0 001.8.9zm0 0"/><path d="M70.8 21v-7.4h-1.7V11l3.2.2v-.5c-.6 0-1-.2-1.5-.5-.3-.3-.6-.6-.7-1a3 3 0 01-.3-1.2c0-.7.2-1.2.5-1.7.4-.5.9-.8 1.5-1 .6-.3 1.4-.5 2.2-.5a6.8 6.8 0 013.4 1L77.2 9c-.4-.3-.8-.5-1.3-.6-.4-.2-.9-.3-1.3-.3s-.7.1-1 .3c-.3.3-.4.6-.4 1 0 .5 0 .8.2 1l.6.3.8.2h2.6v2.7h-3V21zm0 0M81 21V9h3v3.6h.4c.2-.9.5-1.6.8-2.2.4-.5.8-1 1.3-1.3.5-.2 1-.4 1.7-.4.5 0 1 .1 1.4.3.4.1.7.4 1 .7l.6 1.2c.2.5.3 1 .3 1.7h.4c.2-.9.5-1.6 1-2.2A3.6 3.6 0 0196 8.8c.8 0 1.4.2 1.9.5s.9.7 1.1 1.2l.7 1.6.2 1.6V21h-3.6v-5.6a20.3 20.3 0 00-.2-2.1l-.5-1c-.3-.3-.6-.4-1-.4-.5 0-1 .2-1.2.5a3 3 0 00-.8 1.3c-.2.6-.3 1.2-.3 2V21h-3.6v-5.5a21 21 0 00-.2-2.2c0-.4-.3-.7-.5-1-.3-.2-.6-.4-1.1-.4-.4 0-.8.2-1.2.5a3 3 0 00-.7 1.3c-.2.6-.3 1.2-.3 2V21zm0 0M106.5 21.3a7 7 0 01-3.2-.7 5 5 0 01-2.1-2 7 7 0 01-.8-3.6c0-1.4.3-2.5.8-3.4.5-1 1.2-1.6 2.1-2 1-.5 2-.8 3.2-.8a7 7 0 013.2.7 5 5 0 012.2 2c.5 1 .7 2.2.7 3.6a7 7 0 01-.8 3.5 5 5 0 01-2.2 2c-.9.5-2 .7-3.1.7zm.1-2.6c.3 0 .7 0 1-.2l.7-.6.5-1 .2-1.6c0-.7 0-1.3-.2-1.7-.1-.5-.3-.9-.6-1.2a2.3 2.3 0 00-1.8-.8c-.3 0-.6 0-1 .2-.2 0-.5.3-.7.5a3 3 0 00-.5 1 6 6 0 00-.2 1.7c0 .7 0 1.2.2 1.7s.3.9.6 1.1a2.2 2.2 0 001.8.9zm0 0M117.2 21.3c-.6 0-1 0-1.5-.2s-.9-.4-1.2-.7a4 4 0 01-.8-1.2l-.5-1.6-.2-2V9h3.7v6.7l.2 1.2c.1.3.3.7.6 1 .3.2.6.3 1.1.3.4 0 .8 0 1-.3l.8-.8.4-1.3.2-1.6V9.1h3.6V21h-2.9v-3.8h-.5c-.2 1-.5 1.8-.8 2.4-.3.6-.8 1-1.3 1.3a4 4 0 01-1.9.4zm0 0M130.5 21.3c-.7 0-1.3-.1-1.8-.3a3 3 0 01-1.3-.8c-.3-.4-.6-.9-.7-1.4-.2-.6-.3-1.3-.3-2.2V12h-1.6V9.2h1.1c.5 0 1-.1 1.2-.3.3-.1.4-.4.5-.9l.2-1.5h2v2.6h3v3h-3v4.3c0 .6.2 1 .5 1.2.3.2.7.3 1.1.3h.8l.6-.3V21a7.4 7.4 0 01-2.3.4zm0 0M133.4 21V4.9h3.6v3.6a17 17 0 01-.4 4.1h.4c.2-.8.5-1.4.8-2 .3-.6.8-1 1.3-1.3.5-.3 1.1-.5 2-.5a4 4 0 011.9.5c.5.3 1 .6 1.2 1.1l.6 1.5a20.3 20.3 0 01.3 3v6h-3.5v-5.5c0-.6 0-1.1-.2-1.6 0-.4-.2-.8-.3-1a1.7 1.7 0 00-1.6-1 2 2 0 00-1.4.5c-.3.4-.6.8-.8 1.4-.2.6-.3 1.3-.3 2V21zm0 0"/></g></svg>